<mxfile host="edd13187-aac2-432b-8991-5f15929d53a9" modified="2020-07-14T08:29:04.279Z" agent="5.0 (Windows NT 6.1; Win64; x64) AppleWebKit/537.36 (KHTML, like Gecko) Code/1.47.0 Chrome/78.0.3904.130 Electron/7.3.2 Safari/537.36" etag="_0yuaRCfGXSzBbz62_ox" version="13.1.3">
    <diagram id="6hGFLwfOUW9BJ-s0fimq" name="Page-1">
        <mxGraphModel dx="1120" dy="507" grid="1" gridSize="10" guides="1" tooltips="1" connect="1" arrows="1" fold="1" page="1" pageScale="1" pageWidth="1169" pageHeight="1654" math="0" shadow="0">
            <root>
                <mxCell id="0"/>
                <mxCell id="1" parent="0"/>
                <mxCell id="2" value="Updater" style="rounded=1;whiteSpace=wrap;html=1;direction=south;" parent="1" vertex="1">
                    <mxGeometry x="110" y="500" width="60" height="120" as="geometry"/>
                </mxCell>
                <mxCell id="3" value="BuyPolicy" style="rounded=1;whiteSpace=wrap;html=1;direction=south;" parent="1" vertex="1">
                    <mxGeometry x="210" y="500" width="60" height="120" as="geometry"/>
                </mxCell>
                <mxCell id="31" value="Position" style="rounded=1;whiteSpace=wrap;html=1;direction=south;" parent="1" vertex="1">
                    <mxGeometry x="310" y="500" width="60" height="120" as="geometry"/>
                </mxCell>
                <mxCell id="34" value="Risk" style="rounded=1;whiteSpace=wrap;html=1;direction=south;" parent="1" vertex="1">
                    <mxGeometry x="413.5" y="500" width="60" height="120" as="geometry"/>
                </mxCell>
                <mxCell id="65" value="下单" style="rounded=1;whiteSpace=wrap;html=1;direction=south;" parent="1" vertex="1">
                    <mxGeometry x="520" y="500" width="60" height="120" as="geometry"/>
                </mxCell>
                <mxCell id="76" value="止赢策略" style="rounded=1;whiteSpace=wrap;html=1;direction=south;" parent="1" vertex="1">
                    <mxGeometry x="960" y="500" width="60" height="120" as="geometry"/>
                </mxCell>
                <mxCell id="77" value="Tracker" style="rounded=1;whiteSpace=wrap;html=1;direction=south;" parent="1" vertex="1">
                    <mxGeometry x="740" y="500" width="60" height="120" as="geometry"/>
                </mxCell>
                <mxCell id="80" value="止损策略" style="rounded=1;whiteSpace=wrap;html=1;direction=south;" parent="1" vertex="1">
                    <mxGeometry x="850" y="500" width="60" height="120" as="geometry"/>
                </mxCell>
                <mxCell id="81" value="加仓策略" style="rounded=1;whiteSpace=wrap;html=1;direction=south;" parent="1" vertex="1">
                    <mxGeometry x="630" y="500" width="60" height="120" as="geometry"/>
                </mxCell>
                <mxCell id="118" value="StockList&lt;br&gt;map（string）struct{}" style="shape=dataStorage;whiteSpace=wrap;html=1;" parent="1" vertex="1">
                    <mxGeometry x="140" y="200" width="160" height="80" as="geometry"/>
                </mxCell>
                <mxCell id="120" value="List&lt;br&gt;Metrics&lt;br&gt;Func" style="shape=dataStorage;whiteSpace=wrap;html=1;" parent="1" vertex="1">
                    <mxGeometry x="720" y="350" width="100" height="80" as="geometry"/>
                </mxCell>
                <mxCell id="121" style="edgeStyle=orthogonalEdgeStyle;rounded=0;orthogonalLoop=1;jettySize=auto;html=1;exitX=0.5;exitY=1;exitDx=0;exitDy=0;entryX=0;entryY=0.5;entryDx=0;entryDy=0;" parent="1" source="120" target="77" edge="1">
                    <mxGeometry relative="1" as="geometry">
                        <mxPoint x="760" y="460" as="sourcePoint"/>
                        <mxPoint x="760" y="530" as="targetPoint"/>
                    </mxGeometry>
                </mxCell>
                <mxCell id="122" value="List&lt;br&gt;Metrics&lt;br&gt;Func" style="shape=dataStorage;whiteSpace=wrap;html=1;" parent="1" vertex="1">
                    <mxGeometry x="830" y="350" width="100" height="80" as="geometry"/>
                </mxCell>
                <mxCell id="123" style="edgeStyle=orthogonalEdgeStyle;rounded=0;orthogonalLoop=1;jettySize=auto;html=1;exitX=0.5;exitY=1;exitDx=0;exitDy=0;entryX=0;entryY=0.5;entryDx=0;entryDy=0;" parent="1" source="122" target="80" edge="1">
                    <mxGeometry relative="1" as="geometry">
                        <mxPoint x="870" y="450" as="sourcePoint"/>
                        <mxPoint x="870" y="520" as="targetPoint"/>
                    </mxGeometry>
                </mxCell>
                <mxCell id="124" value="List&lt;br&gt;Metrics&lt;br&gt;Func" style="shape=dataStorage;whiteSpace=wrap;html=1;" parent="1" vertex="1">
                    <mxGeometry x="940" y="350" width="100" height="80" as="geometry"/>
                </mxCell>
                <mxCell id="125" style="edgeStyle=orthogonalEdgeStyle;rounded=0;orthogonalLoop=1;jettySize=auto;html=1;exitX=0.5;exitY=1;exitDx=0;exitDy=0;entryX=0;entryY=0.5;entryDx=0;entryDy=0;" parent="1" source="124" target="76" edge="1">
                    <mxGeometry relative="1" as="geometry">
                        <mxPoint x="980" y="440" as="sourcePoint"/>
                        <mxPoint x="980" y="510" as="targetPoint"/>
                    </mxGeometry>
                </mxCell>
                <mxCell id="128" value="DefaultMetrics&lt;br&gt;open/close/high/low" style="shape=dataStorage;whiteSpace=wrap;html=1;" vertex="1" parent="1">
                    <mxGeometry x="390" y="200" width="160" height="80" as="geometry"/>
                </mxCell>
                <mxCell id="130" value="MetricsEvent" style="shape=hexagon;perimeter=hexagonPerimeter2;whiteSpace=wrap;html=1;" vertex="1" parent="1">
                    <mxGeometry x="170" y="320" width="120" height="80" as="geometry"/>
                </mxCell>
            </root>
        </mxGraphModel>
    </diagram>
</mxfile>